<?xml version="1.0" encoding="UTF-8" standalone="no"?>
<!-- Created with Inkscape (http://www.inkscape.org/) -->

<svg
   xmlns:dc="http://purl.org/dc/elements/1.1/"
   xmlns:cc="http://creativecommons.org/ns#"
   xmlns:rdf="http://www.w3.org/1999/02/22-rdf-syntax-ns#"
   xmlns:svg="http://www.w3.org/2000/svg"
   xmlns="http://www.w3.org/2000/svg"
   xmlns:sodipodi="http://sodipodi.sourceforge.net/DTD/sodipodi-0.dtd"
   xmlns:inkscape="http://www.inkscape.org/namespaces/inkscape"
   width="210mm"
   height="297mm"
   viewBox="0 0 744.09448819 1052.3622047"
   id="svg2"
   version="1.1"
   inkscape:version="0.91 r13725"
   sodipodi:docname="drawing.svg"
   inkscape:export-filename="D:\yadisk\YandexDisk\Regulartracking\drawing.png"
   inkscape:export-xdpi="212.05464"
   inkscape:export-ydpi="212.05464">
  <defs
     id="defs4" />
  <sodipodi:namedview
     id="base"
     pagecolor="#ffffff"
     bordercolor="#666666"
     borderopacity="1.0"
     inkscape:pageopacity="0.0"
     inkscape:pageshadow="2"
     inkscape:zoom="0.98994949"
     inkscape:cx="475.1516"
     inkscape:cy="769.67626"
     inkscape:document-units="px"
     inkscape:current-layer="layer1"
     showgrid="false"
     showguides="true"
     inkscape:guide-bbox="true"
     inkscape:window-width="1366"
     inkscape:window-height="746"
     inkscape:window-x="-8"
     inkscape:window-y="-8"
     inkscape:window-maximized="1">
    <sodipodi:guide
       position="194.95944,715.69309"
       orientation="0,1"
       id="guide3397" />
  </sodipodi:namedview>
  <metadata
     id="metadata7">
    <rdf:RDF>
      <cc:Work
         rdf:about="">
        <dc:format>image/svg+xml</dc:format>
        <dc:type
           rdf:resource="http://purl.org/dc/dcmitype/StillImage" />
        <dc:title></dc:title>
      </cc:Work>
    </rdf:RDF>
  </metadata>
  <g
     inkscape:label="Layer 1"
     inkscape:groupmode="layer"
     id="layer1">
    <g
       id="g3376"
       transform="matrix(-0.55980213,-0.82862632,-0.82862632,0.55980213,601.88009,393.56231)">
      <path
         style="fill:#fdc51c"
         d="m 321.14131,257.33117 c -0.80707,-0.52157 -2.8981,-0.95504 -4.64674,-0.96328 -1.74864,-0.008 -3.17935,-0.21857 -3.17935,-0.46741 0,-0.83604 4.00646,-11.75761 4.94299,-13.47451 0.50962,-0.93428 0.92658,-2.53119 0.92658,-3.5487 0,-2.88654 2.48782,-4.35919 6.10517,-3.61391 1.75357,0.36128 4.86343,0.90061 6.91081,1.19851 3.57271,0.51983 3.69836,0.66523 3.12238,3.61307 -0.57989,2.96784 -1.73248,6.11787 -3.53511,9.66144 -0.47527,0.93428 -0.87812,2.47504 -0.89523,3.42391 -0.0776,4.30196 -5.77673,6.73958 -9.7515,4.17088 z M 327.5,252.66946 c 1.92382,-1.41341 3.42392,-5.15127 3.42392,-8.53153 0,-2.90836 -0.33865,-3.43925 -2.20109,-3.45055 -1.2106,-0.008 -3.15823,-0.27007 -4.32807,-0.58385 -2.50538,-0.67198 -4.81191,2.93303 -5.36131,8.37952 -0.28952,2.87015 0.0117,3.44816 2.10786,4.04439 3.34456,0.95135 5.20066,0.99281 6.3587,0.14202 z m 1.4674,-54.83481 0,-5.80764 8.55978,-0.62736 c 4.70788,-0.34504 10.87092,-0.88159 13.69565,-1.19233 l 5.13587,-0.56498 0,5.41491 0,5.41491 -4.15761,0.52128 c -2.28668,0.28671 -8.0431,0.74868 -12.79203,1.0266 -4.74894,0.27793 -9.04106,0.75663 -9.53805,1.06378 -0.51389,0.31761 -0.90361,-1.94634 -0.90361,-5.24917 z m -1.98027,-30.14487 c -0.0131,-0.46626 -0.2776,-3.10852 -0.58787,-5.8717 l -0.56411,-5.02396 7.19112,-0.53888 c 11.00536,-0.82469 23.62682,-2.37073 25.53352,-3.12768 1.45315,-0.57689 1.70994,-0.10921 1.6986,3.09351 -0.0246,6.94861 -0.58405,7.69811 -6.65501,8.91579 -3.05794,0.61334 -9.08164,1.36638 -13.38598,1.67341 -4.30435,0.30704 -9.03669,0.82127 -10.51631,1.14275 -1.47962,0.32147 -2.7009,0.20301 -2.71396,-0.26324 z"
         id="path3357"
         inkscape:connector-curvature="0" />
      <path
         style="fill:#3a013b"
         d="m 328.21429,214.27375 c 0,-3.80586 0.36695,-5.10478 1.4674,-5.19426 9.39972,-0.76434 13.29569,-1.19468 19.43447,-2.14668 3.96341,-0.61465 7.59521,-1.35796 8.07065,-1.6518 1.31567,-0.81312 0.97034,6.69885 -0.38949,8.47286 -0.65545,0.85508 -2.51237,1.85153 -4.1265,2.21434 -10.6345,2.39028 -12.49119,2.69434 -18.58696,3.04389 l -5.86957,0.33658 0,-5.07493 z m -0.61397,-32.17481 c -0.0687,-2.81443 -0.2271,-6.07482 -0.35207,-7.24529 -0.21851,-2.04665 0.0953,-2.12332 8.1955,-2.00224 4.6325,0.0692 10.84392,-0.21997 13.80315,-0.64269 10.47162,-1.49586 10.20377,-1.56893 10.3241,2.81655 0.24812,9.04321 0.358,8.97488 -17.17192,10.67884 -3.49728,0.33994 -8.22962,0.81921 -10.51631,1.06503 l -4.15761,0.44696 -0.12484,-5.11716 z"
         id="path3351"
         inkscape:connector-curvature="0" />
      <path
         sodipodi:nodetypes="ssssssssssssssssscsssscssscccsscscsscsssssccsscsss"
         style="fill:#000000"
         d="m 288.62723,303.27734 c -12.54664,-2.11264 -21.80768,-7.35756 -27.10038,-15.34808 -3.99001,-6.02381 -5.24798,-10.86827 -5.2782,-20.32635 -0.0264,-8.24976 1.00159,-11.34766 5.96329,-17.97144 6.06861,-8.10149 21.53405,-10.5819 27.677,-4.43895 3.52269,3.52268 4.79941,7.65755 3.67254,11.89409 -0.82756,3.11123 -2.74626,4.43619 -2.74626,1.89642 0,-2.95929 -3.91122,-5.5649 -8.35332,-5.5649 -6.00462,0 -8.27711,2.37753 -8.27711,8.65968 0,9.61109 6.4618,14.44755 18.1266,13.56717 7.5313,-0.56841 13.39802,-3.52661 19.28525,-9.72425 4.595,-4.83729 5.10567,-6.61904 1.90541,-6.64801 -4.53549,-0.0411 -4.64375,-1.36309 -0.93441,-11.41058 1.95071,-5.28388 4.06007,-11.28349 4.68747,-13.33247 1.05437,-3.44337 1.35576,-3.67819 3.98086,-3.10162 3.26797,0.71777 3.37837,0.28336 1.37273,-5.40123 -0.80706,-2.28746 -1.46739,-4.24755 -1.46739,-4.35574 0,-0.10819 1.28388,-0.008 2.85306,0.22203 5.13554,0.75374 22.5999,-1.69356 30.13417,-4.22273 4.05677,-1.36182 7.50759,-2.34439 7.66847,-2.18351 0.16089,0.16089 -0.33542,3.58807 -1.10289,7.61595 -0.76749,4.02789 -1.6724,10.64461 -2.01092,14.70383 l -0.61551,7.3804 3.87351,4.47549 c 5.85514,6.76508 6.92469,11.80361 4.72289,22.24892 -0.97488,4.62486 -1.99097,13.80151 -2.25798,20.39254 l -0.48547,11.9837 -8.67227,0 -8.67228,0 0,-8.80435 c 0,-4.84239 -0.40353,-8.80435 -0.89674,-8.80435 -0.4932,0 -1.04347,0.33017 -1.22283,0.7337 -0.17934,0.40353 -4.16765,4.36549 -8.86291,8.80435 l -8.53684,8.07065 -16.89795,-0.11506 c -9.29387,-0.0633 -18.98309,-0.46617 -21.53159,-0.8953 z m 46.08145,-54.36682 c 2.22273,-6.24549 4.04133,-11.88996 4.04133,-12.54326 0,-0.7596 -3.38715,-1.65286 -9.39531,-2.47776 -7.90611,-1.08547 -9.52614,-1.07823 -10.22076,0.0457 -0.90071,1.45739 -7.54148,20.06413 -7.98833,22.38249 -0.20792,1.07872 1.53461,1.71136 7.06092,2.56355 13.3692,2.06163 11.90511,2.94624 16.50215,-9.9707 z m -13.3339,1.73782 c -0.98694,-0.62652 -0.96269,-1.55364 0.12111,-4.63176 1.21641,-3.45472 1.67513,-3.83291 4.48365,-3.69656 1.72073,0.0836 3.31231,0.33561 3.53684,0.56014 0.22453,0.22453 -0.31413,2.24721 -1.19703,4.49484 -1.61553,4.11275 -3.91494,5.19658 -6.94457,3.27334 z"
         id="path3349"
         inkscape:connector-curvature="0" />
    </g>
    <g
       transform="matrix(-0.79106553,0.61173141,0.61173141,0.79106553,536.058,-138.9069)"
       id="g3381">
      <path
         inkscape:connector-curvature="0"
         id="path3383"
         d="m 321.14131,257.33117 c -0.80707,-0.52157 -2.8981,-0.95504 -4.64674,-0.96328 -1.74864,-0.008 -3.17935,-0.21857 -3.17935,-0.46741 0,-0.83604 4.00646,-11.75761 4.94299,-13.47451 0.50962,-0.93428 0.92658,-2.53119 0.92658,-3.5487 0,-2.88654 2.48782,-4.35919 6.10517,-3.61391 1.75357,0.36128 4.86343,0.90061 6.91081,1.19851 3.57271,0.51983 3.69836,0.66523 3.12238,3.61307 -0.57989,2.96784 -1.73248,6.11787 -3.53511,9.66144 -0.47527,0.93428 -0.87812,2.47504 -0.89523,3.42391 -0.0776,4.30196 -5.77673,6.73958 -9.7515,4.17088 z M 327.5,252.66946 c 1.92382,-1.41341 3.42392,-5.15127 3.42392,-8.53153 0,-2.90836 -0.33865,-3.43925 -2.20109,-3.45055 -1.2106,-0.008 -3.15823,-0.27007 -4.32807,-0.58385 -2.50538,-0.67198 -4.81191,2.93303 -5.36131,8.37952 -0.28952,2.87015 0.0117,3.44816 2.10786,4.04439 3.34456,0.95135 5.20066,0.99281 6.3587,0.14202 z m 1.4674,-54.83481 0,-5.80764 8.55978,-0.62736 c 4.70788,-0.34504 10.87092,-0.88159 13.69565,-1.19233 l 5.13587,-0.56498 0,5.41491 0,5.41491 -4.15761,0.52128 c -2.28668,0.28671 -8.0431,0.74868 -12.79203,1.0266 -4.74894,0.27793 -9.04106,0.75663 -9.53805,1.06378 -0.51389,0.31761 -0.90361,-1.94634 -0.90361,-5.24917 z m -1.98027,-30.14487 c -0.0131,-0.46626 -0.2776,-3.10852 -0.58787,-5.8717 l -0.56411,-5.02396 7.19112,-0.53888 c 11.00536,-0.82469 23.62682,-2.37073 25.53352,-3.12768 1.45315,-0.57689 1.70994,-0.10921 1.6986,3.09351 -0.0246,6.94861 -0.58405,7.69811 -6.65501,8.91579 -3.05794,0.61334 -9.08164,1.36638 -13.38598,1.67341 -4.30435,0.30704 -9.03669,0.82127 -10.51631,1.14275 -1.47962,0.32147 -2.7009,0.20301 -2.71396,-0.26324 z"
         style="fill:#fdc51c" />
      <path
         inkscape:connector-curvature="0"
         id="path3385"
         d="m 328.21429,214.27375 c 0,-3.80586 0.36695,-5.10478 1.4674,-5.19426 9.39972,-0.76434 13.29569,-1.19468 19.43447,-2.14668 3.96341,-0.61465 7.59521,-1.35796 8.07065,-1.6518 1.31567,-0.81312 0.97034,6.69885 -0.38949,8.47286 -0.65545,0.85508 -2.51237,1.85153 -4.1265,2.21434 -10.6345,2.39028 -12.49119,2.69434 -18.58696,3.04389 l -5.86957,0.33658 0,-5.07493 z m -0.61397,-32.17481 c -0.0687,-2.81443 -0.2271,-6.07482 -0.35207,-7.24529 -0.21851,-2.04665 0.0953,-2.12332 8.1955,-2.00224 4.6325,0.0692 10.84392,-0.21997 13.80315,-0.64269 10.47162,-1.49586 10.20377,-1.56893 10.3241,2.81655 0.24812,9.04321 0.358,8.97488 -17.17192,10.67884 -3.49728,0.33994 -8.22962,0.81921 -10.51631,1.06503 l -4.15761,0.44696 -0.12484,-5.11716 z"
         style="fill:#3a013b" />
      <path
         inkscape:connector-curvature="0"
         id="path3387"
         d="m 288.62723,303.27734 c -12.54664,-2.11264 -21.80768,-7.35756 -27.10038,-15.34808 -3.99001,-6.02381 -5.24798,-10.86827 -5.2782,-20.32635 -0.0264,-8.24976 1.00159,-11.34766 5.96329,-17.97144 6.06861,-8.10149 21.53405,-10.5819 27.677,-4.43895 3.52269,3.52268 4.79941,7.65755 3.67254,11.89409 -0.82756,3.11123 -2.74626,4.43619 -2.74626,1.89642 0,-2.95929 -3.91122,-5.5649 -8.35332,-5.5649 -6.00462,0 -8.27711,2.37753 -8.27711,8.65968 0,9.61109 6.4618,14.44755 18.1266,13.56717 7.5313,-0.56841 13.39802,-3.52661 19.28525,-9.72425 4.595,-4.83729 5.10567,-6.61904 1.90541,-6.64801 -4.53549,-0.0411 -4.64375,-1.36309 -0.93441,-11.41058 1.95071,-5.28388 4.06007,-11.28349 4.68747,-13.33247 1.05437,-3.44337 1.35576,-3.67819 3.98086,-3.10162 3.26797,0.71777 3.37837,0.28336 1.37273,-5.40123 -0.80706,-2.28746 -1.46739,-4.24755 -1.46739,-4.35574 0,-0.10819 1.28388,-0.008 2.85306,0.22203 5.13554,0.75374 22.5999,-1.69356 30.13417,-4.22273 4.05677,-1.36182 7.50759,-2.34439 7.66847,-2.18351 0.16089,0.16089 -0.33542,3.58807 -1.10289,7.61595 -0.76749,4.02789 -1.6724,10.64461 -2.01092,14.70383 l -0.61551,7.3804 3.87351,4.47549 c 5.85514,6.76508 6.92469,11.80361 4.72289,22.24892 -0.97488,4.62486 -1.99097,13.80151 -2.25798,20.39254 l -0.48547,11.9837 -8.67227,0 -8.67228,0 0,-8.80435 c 0,-4.84239 -0.40353,-8.80435 -0.89674,-8.80435 -0.4932,0 -1.04347,0.33017 -1.22283,0.7337 -0.17934,0.40353 -4.16765,4.36549 -8.86291,8.80435 l -8.53684,8.07065 -16.89795,-0.11506 c -9.29387,-0.0633 -18.98309,-0.46617 -21.53159,-0.8953 z m 46.08145,-54.36682 c 2.22273,-6.24549 4.04133,-11.88996 4.04133,-12.54326 0,-0.7596 -3.38715,-1.65286 -9.39531,-2.47776 -7.90611,-1.08547 -9.52614,-1.07823 -10.22076,0.0457 -0.90071,1.45739 -7.54148,20.06413 -7.98833,22.38249 -0.20792,1.07872 1.53461,1.71136 7.06092,2.56355 13.3692,2.06163 11.90511,2.94624 16.50215,-9.9707 z m -13.3339,1.73782 c -0.98694,-0.62652 -0.96269,-1.55364 0.12111,-4.63176 1.21641,-3.45472 1.67513,-3.83291 4.48365,-3.69656 1.72073,0.0836 3.31231,0.33561 3.53684,0.56014 0.22453,0.22453 -0.31413,2.24721 -1.19703,4.49484 -1.61553,4.11275 -3.91494,5.19658 -6.94457,3.27334 z"
         style="fill:#000000"
         sodipodi:nodetypes="ssssssssssssssssscsssscssscccsscscsscsssssccsscsss" />
    </g>
    <text
       xml:space="preserve"
       style="font-style:normal;font-weight:normal;font-size:40px;line-height:125%;font-family:sans-serif;letter-spacing:0px;word-spacing:0px;fill:#00aad4;fill-opacity:1;stroke:none;stroke-width:1px;stroke-linecap:butt;stroke-linejoin:miter;stroke-opacity:1"
       x="144.86754"
       y="570.87646"
       id="text3399"
       sodipodi:linespacing="125%"
       transform="matrix(0.76587617,-0.6429881,0.6429881,0.76587617,0,0)"
       inkscape:transform-center-x="28.047687"
       inkscape:transform-center-y="-16.497981"><tspan
         sodipodi:role="line"
         id="tspan3401"
         x="144.86754"
         y="570.87646"
         style="font-style:normal;font-variant:normal;font-weight:normal;font-stretch:normal;font-family:'Showcard Gothic';-inkscape-font-specification:'Showcard Gothic';fill:#00aad4">Plan</tspan></text>
    <text
       sodipodi:linespacing="125%"
       id="text4203"
       y="82.727943"
       x="315.09982"
       style="font-style:normal;font-weight:normal;font-size:40px;line-height:125%;font-family:sans-serif;letter-spacing:0px;word-spacing:0px;fill:#ff6600;fill-opacity:1;stroke:none;stroke-width:1px;stroke-linecap:butt;stroke-linejoin:miter;stroke-opacity:1"
       xml:space="preserve"
       transform="matrix(0.58581288,0.81044634,-0.81044634,0.58581288,0,0)"><tspan
         style="font-style:normal;font-variant:normal;font-weight:normal;font-stretch:normal;font-family:'Showcard Gothic';-inkscape-font-specification:'Showcard Gothic';fill:#ff6600"
         y="82.727943"
         x="315.09982"
         id="tspan4205"
         sodipodi:role="line">DO</tspan></text>
  </g>
</svg>
